<svg xmlns="http://www.w3.org/2000/svg" width="800" height="800" overflow="visible"><g fill="#29292E"><path d="M397.879 210l-100.463 58.004v116.008l100.463 58.003 100.465-58.003V268.004L397.881 210zm52.897 147.033l-52.897 30.054-52.892-31.026V295.47l52.894-30.54 52.897 30.54v61.564zM85.554 468.028v40.768c0 6.51-1.75 9.772-5.25 9.772-3.472 0-5.208-2.814-5.208-8.456H63c0 5.796 1.512 10.332 4.55 13.58 3.038 3.248 7.28 4.886 12.754 4.886 5.082 0 9.24-1.75 12.474-5.25 3.22-3.5 4.83-8.148 4.83-13.944v-41.356zm55.16 44.058c0 4.452-2.114 6.678-6.314 6.678-3.038 0-5.222-.77-6.566-2.338-1.344-1.554-2.016-4.06-2.016-7.504h-12.096c0 4.018.896 7.504 2.688 10.458 1.792 2.954 4.27 5.222 7.448 6.818 3.164 1.582 6.678 2.38 10.542 2.38 5.684 0 10.178-1.47 13.482-4.396 3.318-2.926 4.97-6.986 4.97-12.18 0-4.732-1.316-8.624-3.962-11.69-2.632-3.066-6.874-5.642-12.698-7.756-3.332-1.414-5.656-2.786-6.972-4.116-1.302-1.33-1.96-2.814-1.96-4.452 0-2.1.588-3.78 1.764-5.026 1.176-1.246 2.814-1.862 4.914-1.862 2.254 0 3.962.728 5.152 2.198 1.19 1.456 1.778 3.584 1.778 6.37h12.026c0-3.584-.77-6.776-2.324-9.59-1.54-2.828-3.752-4.998-6.622-6.552-2.87-1.54-6.132-2.31-9.8-2.31-5.502 0-10.024 1.526-13.594 4.564-3.57 3.052-5.362 7.098-5.362 12.124 0 4.158 1.316 7.756 3.948 10.808 2.618 3.052 6.93 5.712 12.922 7.98 3.276 1.344 5.544 2.632 6.776 3.878 1.246 1.246 1.876 3.08 1.876 5.516zm70.574-8.82v-10.22c-.056-8.176-1.988-14.518-5.824-19.04-3.822-4.536-9.058-6.79-15.708-6.79-6.748 0-12.026 2.296-15.834 6.902-3.794 4.62-5.698 11.018-5.698 19.222v10.206c.056 7.91 2.002 14.056 5.824 18.438 3.822 4.396 9.086 6.594 15.792 6.594 6.72 0 11.984-2.226 15.764-6.65 3.794-4.424 5.684-10.654 5.684-18.662zm-12.096-10.01v10.374c-.028 5.096-.812 8.848-2.338 11.27-1.526 2.408-3.864 3.626-7.014 3.626-3.248 0-5.656-1.246-7.224-3.71-1.554-2.478-2.338-6.328-2.338-11.55V492.64c.056-5.166.854-9.016 2.38-11.55 1.54-2.52 3.906-3.794 7.098-3.794 3.234 0 5.6 1.316 7.14 3.948 1.526 2.618 2.296 6.622 2.296 12.012zm70.91 34.496v-59.724h-12.026v39.214l-17.668-39.214H228.34v59.724h12.068V488.58l17.626 39.172zm38.374-20.748v-9.688h-20.048v9.688zm30.674 10.738v-49.714h-12.054v59.724h33.222v-10.01zm49.126 10.01v-59.724h-12.054v59.724zm60.284 0v-59.724h-12.012v39.214l-17.682-39.214h-12.054v59.724h12.054V488.58l17.64 39.172zm55.58-49.672v-10.052h-41.398v10.052h14.532v49.672h12.096V478.08zm24.472 28.924v-9.688H508.55v9.688zm18.606 20.748h15.47c7.266 0 12.978-2.24 17.122-6.706s6.216-10.626 6.216-18.48v-9.674c-.084-7.714-2.198-13.79-6.342-18.214-4.144-4.424-9.702-6.65-16.674-6.65h-15.792zm12.068-49.672h4.382c3.752.112 6.398 1.26 7.966 3.472 1.554 2.198 2.338 6.09 2.338 11.662v10.374c-.084 5.208-.952 8.862-2.59 10.976-1.638 2.114-4.466 3.178-8.484 3.178h-3.612zm64.092 28.924v-9.688H603.33v9.688zm57.288-28.924v-10.052h-41.384v10.052h14.532v49.672h12.096V478.08zm39.9 34.006c0 4.452-2.1 6.678-6.314 6.678-3.024 0-5.222-.77-6.552-2.338-1.344-1.554-2.016-4.06-2.016-7.504h-12.096c0 4.018.896 7.504 2.688 10.458 1.792 2.954 4.27 5.222 7.434 6.818 3.178 1.582 6.692 2.38 10.542 2.38 5.698 0 10.192-1.47 13.496-4.396 3.318-2.926 4.97-6.986 4.97-12.18 0-4.732-1.33-8.624-3.962-11.69-2.646-3.066-6.874-5.642-12.698-7.756-3.332-1.414-5.656-2.786-6.972-4.116-1.316-1.33-1.96-2.814-1.96-4.452 0-2.1.588-3.78 1.764-5.026 1.176-1.246 2.814-1.862 4.914-1.862 2.24 0 3.962.728 5.152 2.198 1.19 1.456 1.778 3.584 1.778 6.37h12.026c0-3.584-.784-6.776-2.324-9.59-1.54-2.828-3.752-4.998-6.622-6.552-2.87-1.54-6.146-2.31-9.8-2.31-5.502 0-10.038 1.526-13.594 4.564-3.57 3.052-5.362 7.098-5.362 12.124 0 4.158 1.316 7.756 3.934 10.808 2.632 3.052 6.944 5.712 12.922 7.98 3.29 1.344 5.544 2.632 6.79 3.878 1.246 1.246 1.862 3.08 1.862 5.516z"/></g></svg>
