<?xml version="1.0" encoding="UTF-8"?>
<svg xmlns="http://www.w3.org/2000/svg" xmlns:xlink="http://www.w3.org/1999/xlink" width="200pt" height="200pt" viewBox="0 0 200 200" version="1.1">
<g id="surface1">
<path style=" stroke:none;fill-rule:nonzero;fill:rgb(16.078431%,16.078431%,18.039216%);fill-opacity:1;" d="M 99.46875 52.5 L 74.355469 67 L 74.355469 96.003906 L 99.46875 110.503906 L 124.585938 96.003906 L 124.585938 67 Z M 112.695312 89.257812 L 99.46875 96.773438 L 86.246094 89.015625 L 86.246094 73.867188 L 99.46875 66.234375 L 112.695312 73.867188 Z M 21.386719 117.007812 L 21.386719 127.199219 C 21.386719 128.828125 20.949219 129.640625 20.074219 129.640625 C 19.207031 129.640625 18.773438 128.9375 18.773438 127.527344 L 15.75 127.527344 C 15.75 128.976562 16.128906 130.109375 16.886719 130.921875 C 17.648438 131.734375 18.707031 132.144531 20.074219 132.144531 C 21.347656 132.144531 22.386719 131.707031 23.195312 130.832031 C 24 129.957031 24.402344 128.796875 24.402344 127.347656 L 24.402344 117.007812 Z M 35.179688 128.023438 C 35.179688 129.132812 34.648438 129.691406 33.601562 129.691406 C 32.839844 129.691406 32.292969 129.5 31.957031 129.105469 C 31.621094 128.71875 31.453125 128.089844 31.453125 127.230469 L 28.429688 127.230469 C 28.429688 128.234375 28.65625 129.105469 29.101562 129.84375 C 29.550781 130.582031 30.171875 131.152344 30.964844 131.550781 C 31.753906 131.945312 32.632812 132.144531 33.601562 132.144531 C 35.019531 132.144531 36.144531 131.777344 36.96875 131.046875 C 37.800781 130.3125 38.214844 129.300781 38.214844 128 C 38.214844 126.816406 37.882812 125.84375 37.222656 125.078125 C 36.566406 124.3125 35.503906 123.667969 34.046875 123.140625 C 33.214844 122.785156 32.632812 122.441406 32.304688 122.109375 C 31.980469 121.777344 31.816406 121.40625 31.816406 120.996094 C 31.816406 120.472656 31.960938 120.050781 32.257812 119.742188 C 32.550781 119.429688 32.960938 119.273438 33.484375 119.273438 C 34.046875 119.273438 34.476562 119.457031 34.773438 119.824219 C 35.070312 120.1875 35.21875 120.71875 35.21875 121.417969 L 38.222656 121.417969 C 38.222656 120.519531 38.03125 119.722656 37.640625 119.019531 C 37.257812 118.3125 36.703125 117.769531 35.988281 117.382812 C 35.269531 116.996094 34.453125 116.804688 33.535156 116.804688 C 32.160156 116.804688 31.03125 117.183594 30.136719 117.945312 C 29.246094 118.707031 28.796875 119.71875 28.796875 120.976562 C 28.796875 122.015625 29.128906 122.914062 29.785156 123.679688 C 30.441406 124.441406 31.515625 125.105469 33.015625 125.671875 C 33.835938 126.007812 34.402344 126.332031 34.710938 126.640625 C 35.019531 126.953125 35.179688 127.414062 35.179688 128.023438 Z M 52.820312 125.816406 L 52.820312 123.261719 C 52.808594 121.21875 52.324219 119.632812 51.367188 118.5 C 50.410156 117.367188 49.101562 116.804688 47.4375 116.804688 C 45.753906 116.804688 44.433594 117.378906 43.480469 118.53125 C 42.53125 119.683594 42.054688 121.285156 42.054688 123.335938 L 42.054688 125.886719 C 42.070312 127.863281 42.554688 129.402344 43.511719 130.496094 C 44.46875 131.59375 45.785156 132.144531 47.460938 132.144531 C 49.140625 132.144531 50.457031 131.589844 51.402344 130.480469 C 52.347656 129.375 52.820312 127.820312 52.820312 125.816406 Z M 49.796875 123.3125 L 49.796875 125.90625 C 49.789062 127.179688 49.59375 128.121094 49.214844 128.726562 C 48.832031 129.328125 48.246094 129.632812 47.460938 129.632812 C 46.648438 129.632812 46.046875 129.320312 45.652344 128.703125 C 45.265625 128.085938 45.070312 127.121094 45.070312 125.816406 L 45.070312 123.160156 C 45.082031 121.867188 45.28125 120.90625 45.664062 120.273438 C 46.050781 119.640625 46.640625 119.324219 47.4375 119.324219 C 48.246094 119.324219 48.839844 119.652344 49.222656 120.3125 C 49.605469 120.964844 49.796875 121.964844 49.796875 123.3125 Z M 67.527344 131.9375 L 67.527344 117.007812 L 64.519531 117.007812 L 64.519531 126.808594 L 60.101562 117.007812 L 57.085938 117.007812 L 57.085938 131.9375 L 60.101562 131.9375 L 60.101562 122.144531 L 64.507812 131.9375 Z M 77.117188 126.75 L 77.117188 124.328125 L 72.105469 124.328125 L 72.105469 126.75 Z M 84.789062 129.433594 L 84.789062 117.007812 L 81.773438 117.007812 L 81.773438 131.9375 L 90.078125 131.9375 L 90.078125 129.433594 Z M 97.070312 131.9375 L 97.070312 117.007812 L 94.054688 117.007812 L 94.054688 131.9375 Z M 112.140625 131.9375 L 112.140625 117.007812 L 109.136719 117.007812 L 109.136719 126.808594 L 104.714844 117.007812 L 101.703125 117.007812 L 101.703125 131.9375 L 104.714844 131.9375 L 104.714844 122.144531 L 109.125 131.9375 Z M 126.035156 119.519531 L 126.035156 117.007812 L 115.683594 117.007812 L 115.683594 119.519531 L 119.320312 119.519531 L 119.320312 131.9375 L 122.34375 131.9375 L 122.34375 119.519531 Z M 132.152344 126.75 L 132.152344 124.328125 L 127.136719 124.328125 L 127.136719 126.75 Z M 136.804688 131.9375 L 140.671875 131.9375 C 142.488281 131.9375 143.917969 131.378906 144.953125 130.261719 C 145.988281 129.144531 146.507812 127.605469 146.507812 125.640625 L 146.507812 123.222656 C 146.484375 121.292969 145.957031 119.777344 144.921875 118.667969 C 143.886719 117.5625 142.496094 117.007812 140.753906 117.007812 L 136.804688 117.007812 Z M 139.820312 119.519531 L 140.917969 119.519531 C 141.855469 119.546875 142.515625 119.835938 142.910156 120.386719 C 143.296875 120.9375 143.492188 121.910156 143.492188 123.304688 L 143.492188 125.898438 C 143.472656 127.199219 143.253906 128.113281 142.84375 128.640625 C 142.4375 129.167969 141.730469 129.433594 140.722656 129.433594 L 139.820312 129.433594 Z M 155.84375 126.75 L 155.84375 124.328125 L 150.832031 124.328125 L 150.832031 126.75 Z M 170.167969 119.519531 L 170.167969 117.007812 L 159.820312 117.007812 L 159.820312 119.519531 L 163.453125 119.519531 L 163.453125 131.9375 L 166.476562 131.9375 L 166.476562 119.519531 Z M 180.140625 128.023438 C 180.140625 129.132812 179.617188 129.691406 178.5625 129.691406 C 177.808594 129.691406 177.257812 129.5 176.925781 129.105469 C 176.589844 128.71875 176.421875 128.089844 176.421875 127.230469 L 173.398438 127.230469 C 173.398438 128.234375 173.621094 129.105469 174.070312 129.84375 C 174.515625 130.582031 175.136719 131.152344 175.925781 131.550781 C 176.722656 131.945312 177.601562 132.144531 178.5625 132.144531 C 179.988281 132.144531 181.109375 131.777344 181.9375 131.046875 C 182.765625 130.3125 183.179688 129.300781 183.179688 128 C 183.179688 126.816406 182.847656 125.84375 182.1875 125.078125 C 181.527344 124.3125 180.46875 123.667969 179.015625 123.140625 C 178.179688 122.785156 177.601562 122.441406 177.273438 122.109375 C 176.941406 121.777344 176.78125 121.40625 176.78125 120.996094 C 176.78125 120.472656 176.929688 120.050781 177.222656 119.742188 C 177.515625 119.429688 177.925781 119.273438 178.449219 119.273438 C 179.011719 119.273438 179.441406 119.457031 179.738281 119.824219 C 180.035156 120.1875 180.183594 120.71875 180.183594 121.417969 L 183.191406 121.417969 C 183.191406 120.519531 182.992188 119.722656 182.609375 119.019531 C 182.222656 118.3125 181.671875 117.769531 180.953125 117.382812 C 180.234375 116.996094 179.417969 116.804688 178.503906 116.804688 C 177.128906 116.804688 175.992188 117.183594 175.105469 117.945312 C 174.210938 118.707031 173.765625 119.71875 173.765625 120.976562 C 173.765625 122.015625 174.09375 122.914062 174.746094 123.679688 C 175.40625 124.441406 176.484375 125.105469 177.976562 125.671875 C 178.800781 126.007812 179.363281 126.332031 179.675781 126.640625 C 179.988281 126.953125 180.140625 127.414062 180.140625 128.023438 Z M 180.140625 128.023438 "/>
</g>
</svg>
